HIERARCHY
ROOT Hips
{
	OFFSET 0.00000 0.00000 0.00000
	CHANNELS 6 Xposition Yposition Zposition Zrotation Yrotation Xrotation 
	JOINT LHipJoint
	{
		OFFSET 0 0 0
		CHANNELS 3 Zrotation Yrotation Xrotation
		JOINT LeftHip
		{
			OFFSET 1.58895 -1.83665 0.71753
			CHANNELS 3 Zrotation Yrotation Xrotation
			JOINT LeftKnee
			{
				OFFSET 2.50528 -6.88321 0.00000
				CHANNELS 3 Zrotation Yrotation Xrotation
				JOINT LeftAnkle
				{
					OFFSET 2.63244 -7.23257 0.00000
					CHANNELS 3 Zrotation Yrotation Xrotation
					JOINT LeftToe
					{
						OFFSET 0.23691 -0.65090 1.72750
						CHANNELS 3 Zrotation Yrotation Xrotation
						End Site
						{
							OFFSET 0.00000 -0.00000 0.92561
						}
					}
				}
			}
		}
	}
	JOINT RHipJoint
	{
		OFFSET 0 0 0
		CHANNELS 3 Zrotation Yrotation Xrotation
		JOINT RightHip
		{
			OFFSET -1.51435 -1.83665 0.71753
			CHANNELS 3 Zrotation Yrotation Xrotation
			JOINT RightKnee
			{
				OFFSET -2.54551 -6.99375 0.00000
				CHANNELS 3 Zrotation Yrotation Xrotation
				JOINT RightAnkle
				{
					OFFSET -2.66027 -7.30903 0.00000
					CHANNELS 3 Zrotation Yrotation Xrotation
					JOINT RightToe
					{
						OFFSET -0.22981 -0.63138 2.03959
						CHANNELS 3 Zrotation Yrotation Xrotation
						End Site
						{
							OFFSET -0.00000 -0.00000 1.07060
						}
					}
				}
			}
		}
	}
	JOINT lowerback
	{
		OFFSET 0 0 0
		CHANNELS 3 Zrotation Yrotation Xrotation
		JOINT Chest
		{
			OFFSET -0.02651 1.86275 -0.11152
			CHANNELS 3 Zrotation Yrotation Xrotation
			JOINT Chest2
			{
				OFFSET 0.01019 1.86224 0.04087
				CHANNELS 3 Zrotation Yrotation Xrotation
				JOINT lowerneck
				{
					OFFSET 0 0 0
					CHANNELS 3 Zrotation Yrotation Xrotation
					JOINT Neck
					{
						OFFSET -0.01926 1.80512 0.08867
						CHANNELS 3 Zrotation Yrotation Xrotation
						JOINT Head
						{
							OFFSET 0.05516 1.76451 -0.38475
							CHANNELS 3 Zrotation Yrotation Xrotation
							End Site
							{
								OFFSET 0.01592 1.82587 -0.14001
							}
						}
					}
				}
				JOINT LeftCollar
				{
					OFFSET 0 0 0
					CHANNELS 3 Zrotation Yrotation Xrotation
					JOINT LeftShoulder
					{
						OFFSET 3.47116 1.51376 0.14491
CHANNELS 3 Zrotation Xrotation Yrotation
						JOINT LeftElbow
						{
OFFSET 0 -4.780950 0.000000
CHANNELS 3 Zrotation Xrotation Yrotation
							JOINT LeftWrist
							{
OFFSET 0 -3.586150 -0.000000
CHANNELS 3 Zrotation Xrotation Yrotation
								JOINT lhand
								{
									OFFSET 0 0 0
CHANNELS 3 Zrotation Xrotation Yrotation
									JOINT LFingers
									{
OFFSET 0 -0.659810 0.000000
CHANNELS 3 Zrotation Xrotation Yrotation
										End Site
										{
OFFSET 0 -0.531960 0.000000
										}
									}
								}
								JOINT LThumb
								{
OFFSET 0 0.000000 0.000000
CHANNELS 3 Zrotation Xrotation Yrotation
									End Site
									{
OFFSET 0 -0.540080 0.540080
									}
								}
							}
						}
					}
				}
				JOINT RightCollar
				{
					OFFSET 0 0 0
					CHANNELS 3 Zrotation Yrotation Xrotation
					JOINT RightShoulder
					{
						OFFSET -3.31725 1.61216 0.35156
CHANNELS 3 Zrotation Xrotation Yrotation
						JOINT RightElbow
						{
OFFSET 0 -4.489130 0.000000
CHANNELS 3 Zrotation Xrotation Yrotation
							JOINT RightWrist
							{
OFFSET 0 -3.705100 0.000000
CHANNELS 3 Zrotation Xrotation Yrotation
								JOINT rhand
								{
									OFFSET 0 0 0
CHANNELS 3 Zrotation Xrotation Yrotation
									JOINT RFingers
									{
OFFSET 0 -0.449140 0.000000
CHANNELS 3 Zrotation Xrotation Yrotation
										End Site
										{
OFFSET 0 -0.362110 0.000000
										}
									}
								}
								JOINT RThumb
								{
OFFSET 0 0.000000 0.000000
CHANNELS 3 Zrotation Xrotation Yrotation
									End Site
									{
OFFSET 0 -0.367630 0.367630
									}
								}
							}
						}
					}
				}
			}
		}
	}
}
MOTION
Frames: 11
Frame Time: 0.008333333333333333
-0.639657 18.790690 5.943207 -2.173453 0.339623 1.998597 0.000000 0.000000 0.000000 -14.784252 -4.588521 -6.674655 1.783846 8.400527 23.937516 1.408341 3.146297 -23.743459 8.844709 -16.706739 -55.551549 0.000000 0.000000 0.000000 0.000000 0.000000 0.000000 0.000000 0.000000 0.000000 0.000000 0.000000 0.000000 0.000000 0.000000 0.000000 5.423057 1.432320 12.942808 3.654972 3.060937 -0.992952 0.240304 1.329217 -8.275608 3.745176 -1.307328 2.537404 -12.001822 -1.776755 -0.326597 -4.621635 -0.797160 -0.723886 0.000000 0.000000 0.000000 8.872350 16.003048 -59.241975 127.877472 -53.816480 92.121643 15.309147 -3.675662 34.872093 0.000000 0.000000 0.000000 -7.125000 0.000000 0.000000 -9.590131 -5.424143 -10.597121 0.000000 0.000000 0.000000 -31.171033 -53.520136 33.325904 -146.293175 -43.866092 -106.090442 -39.196929 13.594188 28.402720 0.000000 0.000000 0.000000 7.125000 0.000000 0.000000 -11.497301 64.535841 5.471925
-0.645666 18.800592 5.946749 -2.218898 0.553187 2.159713 0.000000 0.000000 0.000000 -14.696575 -4.766029 -6.839589 1.783460 8.399642 23.934720 1.392852 3.157365 -23.627124 8.856063 -16.714217 -55.591113 0.000000 0.000000 0.000000 0.000000 0.000000 0.000000 0.000000 0.000000 0.000000 0.000000 0.000000 0.000000 0.000000 0.000000 0.000000 5.586038 1.420271 13.151485 3.655967 3.096087 -1.098043 0.137307 1.331846 -8.500848 3.834177 -1.393679 2.447693 -12.109493 -1.930511 -0.725083 -4.678068 -0.865223 -0.853889 0.000000 0.000000 0.000000 8.910495 16.489642 -59.262064 128.162711 -53.710109 92.351686 15.254721 -3.608939 34.774538 0.000000 0.000000 0.000000 -7.125000 0.000000 0.000000 -9.608055 -5.318019 -10.601353 0.000000 0.000000 0.000000 -32.988457 -54.751538 32.253643 -146.783546 -43.495596 -106.429095 -39.742949 14.605047 29.011025 0.000000 0.000000 0.000000 7.125000 0.000000 0.000000 -12.242917 65.388021 6.073146
-0.651409 18.809108 5.948994 -2.217475 0.715606 2.282307 0.000000 0.000000 0.000000 -14.663016 -4.794942 -6.953460 1.771202 8.372288 23.850589 1.361627 3.389158 -23.493108 8.898730 -16.742126 -55.739292 0.000000 0.000000 0.000000 0.000000 0.000000 0.000000 0.000000 0.000000 0.000000 0.000000 0.000000 0.000000 0.000000 0.000000 0.000000 5.702333 1.390552 13.332662 3.644863 3.093535 -1.148184 0.055714 1.320196 -8.653380 3.651635 -1.480964 2.165419 -11.851852 -2.088019 -1.121928 -4.545798 -0.943405 -0.938442 0.000000 0.000000 0.000000 8.801288 16.881478 -59.122092 128.242727 -53.680125 92.416158 15.255649 -3.644654 34.716600 0.000000 0.000000 0.000000 -7.125000 0.000000 0.000000 -9.600669 -5.260896 -10.584262 0.000000 0.000000 0.000000 -33.486008 -54.886749 31.613742 -147.060476 -43.283442 -106.619416 -39.782223 14.811870 28.557675 0.000000 0.000000 0.000000 7.125000 0.000000 0.000000 -12.337528 64.885814 5.977446
-0.661574 18.813306 5.954413 -2.325618 0.845451 2.289986 0.000000 0.000000 0.000000 -14.509124 -4.873680 -6.900176 1.762455 8.352587 23.790305 1.300539 3.737682 -23.179183 8.825569 -16.694126 -55.484891 0.000000 0.000000 0.000000 0.000000 0.000000 0.000000 0.000000 0.000000 0.000000 0.000000 0.000000 0.000000 0.000000 0.000000 0.000000 5.800457 1.330314 13.478350 3.748750 3.049578 -1.120039 0.117358 1.295858 -8.709755 3.266974 -1.632001 1.993166 -11.571564 -2.352590 -1.716684 -4.364079 -1.064972 -1.111735 0.000000 0.000000 0.000000 8.534739 17.222405 -58.868511 128.247818 -53.678164 92.420275 15.198309 -3.870118 34.925933 0.000000 0.000000 0.000000 -7.125000 0.000000 0.000000 -9.656829 -5.457608 -10.678101 0.000000 0.000000 0.000000 -34.922409 -55.152948 30.119625 -147.528910 -42.919466 -106.939511 -40.204737 15.401529 29.131115 0.000000 0.000000 0.000000 7.125000 0.000000 0.000000 -12.928531 65.663559 6.500908
-0.671717 18.813697 5.957657 -2.376988 0.940253 2.271349 0.000000 0.000000 0.000000 -14.440340 -5.014201 -6.836030 1.763827 8.355857 23.800274 1.294333 3.868104 -23.197171 8.842146 -16.705066 -55.542471 0.000000 0.000000 0.000000 0.000000 0.000000 0.000000 0.000000 0.000000 0.000000 0.000000 0.000000 0.000000 0.000000 0.000000 0.000000 5.878366 1.224743 13.673290 3.819461 2.944799 -1.105932 0.166273 1.240901 -8.810824 2.937697 -1.862316 1.847802 -11.459610 -2.719154 -2.241598 -4.253562 -1.236124 -1.278153 0.000000 0.000000 0.000000 8.276209 17.611387 -58.649593 128.442372 -53.604776 92.576905 15.271091 -4.065282 34.736353 0.000000 0.000000 0.000000 -7.125000 0.000000 0.000000 -9.594609 -5.283212 -10.580774 0.000000 0.000000 0.000000 -35.142839 -54.933756 29.632841 -148.048275 -42.508605 -107.291766 -40.561078 16.677413 29.234543 0.000000 0.000000 0.000000 7.125000 0.000000 0.000000 -13.465233 65.888927 6.844724
-0.685942 18.813148 5.959597 -2.390097 1.051009 2.374658 0.000000 0.000000 0.000000 -14.342209 -4.970979 -7.014064 1.764922 8.358343 23.807790 1.297294 3.688991 -23.128177 8.832771 -16.698874 -55.509944 0.000000 0.000000 0.000000 0.000000 0.000000 0.000000 0.000000 0.000000 0.000000 0.000000 0.000000 0.000000 0.000000 0.000000 0.000000 5.928657 1.086276 13.816484 3.850502 2.790505 -1.177957 0.200390 1.160042 -8.977494 2.616687 -2.308931 1.569462 -11.377924 -3.356951 -2.546214 -4.149924 -1.551952 -1.369578 0.000000 0.000000 0.000000 8.122913 17.954373 -58.528899 128.532665 -53.570425 92.649647 15.351047 -4.132974 34.696688 0.000000 0.000000 0.000000 -7.125000 0.000000 0.000000 -9.546256 -5.258181 -10.522269 0.000000 0.000000 0.000000 -34.840549 -54.370655 29.914200 -148.768340 -41.925760 -107.775604 -41.056435 18.916263 29.894696 0.000000 0.000000 0.000000 7.125000 0.000000 0.000000 -14.212669 66.788637 7.526168
-0.699539 18.810194 5.962527 -2.267551 1.059757 2.452105 0.000000 0.000000 0.000000 -14.423807 -4.836936 -7.165936 1.767052 8.362938 23.822069 1.339435 3.118823 -23.182519 8.901203 -16.743695 -55.747905 0.000000 0.000000 0.000000 0.000000 0.000000 0.000000 0.000000 0.000000 0.000000 0.000000 0.000000 0.000000 0.000000 0.000000 0.000000 5.739536 0.938709 13.862959 3.939723 2.572582 -1.145227 0.446937 1.067280 -8.988146 2.103709 -2.856514 1.237439 -11.040840 -4.127623 -2.880220 -3.915453 -1.935469 -1.454975 0.000000 0.000000 0.000000 7.735441 18.137472 -58.302263 128.545461 -53.565526 92.659878 15.182882 -4.125401 34.872047 0.000000 0.000000 0.000000 -7.125000 0.000000 0.000000 -9.658857 -5.401653 -10.671729 0.000000 0.000000 0.000000 -36.241204 -54.482959 28.724835 -149.338956 -41.453222 -108.155178 -42.328789 21.022124 30.574947 0.000000 0.000000 0.000000 7.125000 0.000000 0.000000 -16.290466 67.952951 9.078602
-0.712801 18.807789 5.962633 -2.219211 0.960385 2.533489 0.000000 0.000000 0.000000 -14.459905 -5.043858 -7.164648 1.769378 8.368294 23.838422 1.365369 3.365747 -23.511097 8.890131 -16.736241 -55.708935 0.000000 0.000000 0.000000 0.000000 0.000000 0.000000 0.000000 0.000000 0.000000 0.000000 0.000000 0.000000 0.000000 0.000000 0.000000 5.653326 0.755225 13.993461 4.011925 2.332473 -1.145674 0.621933 0.956112 -9.077761 1.809382 -3.401765 1.026308 -10.692293 -4.878994 -3.121611 -3.720634 -2.310897 -1.529764 0.000000 0.000000 0.000000 7.445652 18.254773 -58.230713 128.496476 -53.584201 92.620466 15.250859 -4.323517 34.731465 0.000000 0.000000 0.000000 -7.125000 0.000000 0.000000 -9.605106 -5.274768 -10.591422 0.000000 0.000000 0.000000 -36.489879 -54.443050 28.205883 -149.735650 -41.118781 -108.416911 -42.680196 22.679176 30.608910 0.000000 0.000000 0.000000 7.125000 0.000000 0.000000 -16.888369 68.101284 9.475310
-0.720720 18.806745 5.965264 -2.163000 0.656381 2.701503 0.000000 0.000000 0.000000 -14.501727 -5.195075 -7.187030 1.766174 8.360992 23.815972 1.418788 3.267784 -23.884511 8.509304 -16.481349 -54.377032 0.000000 0.000000 0.000000 0.000000 0.000000 0.000000 0.000000 0.000000 0.000000 0.000000 0.000000 0.000000 0.000000 0.000000 0.000000 5.555001 0.573868 13.958394 4.085753 2.080446 -1.179053 0.811267 0.841112 -9.107558 1.318902 -3.898555 1.056795 -9.908067 -5.545555 -3.287313 -3.336314 -2.643083 -1.587615 0.000000 0.000000 0.000000 7.204061 18.369882 -58.259453 128.373296 -53.630823 92.521312 15.676063 -4.308980 34.456915 0.000000 0.000000 0.000000 -7.125000 0.000000 0.000000 -9.339781 -5.079098 -10.262445 0.000000 0.000000 0.000000 -34.956822 -53.594058 28.866095 -150.160308 -40.755189 -108.694987 -42.459365 24.396138 30.318829 0.000000 0.000000 0.000000 7.125000 0.000000 0.000000 -16.510590 67.703969 9.116900
-0.728317 18.803386 5.967663 -2.058816 0.245250 2.781831 0.000000 0.000000 0.000000 -14.617189 -4.807985 -7.340135 1.755893 8.337985 23.745429 1.384859 3.505028 -23.734768 8.778729 -16.663161 -55.321708 0.000000 0.000000 0.000000 0.000000 0.000000 0.000000 0.000000 0.000000 0.000000 0.000000 0.000000 0.000000 0.000000 0.000000 0.000000 5.401721 0.416541 13.939516 4.136711 1.845160 -1.141956 1.002325 0.738179 -9.067660 1.378843 -4.326423 0.908989 -9.642116 -6.100949 -3.175277 -3.244884 -2.932830 -1.551197 0.000000 0.000000 0.000000 7.107318 18.228563 -58.354393 128.286668 -53.663585 92.451580 15.438428 -4.194095 34.358645 0.000000 0.000000 0.000000 -7.125000 0.000000 0.000000 -9.458241 -4.939385 -10.374883 0.000000 0.000000 0.000000 -35.751344 -54.126908 27.860650 -150.490173 -40.469439 -108.909914 -42.931511 25.442237 31.254254 0.000000 0.000000 0.000000 7.125000 0.000000 0.000000 -17.360902 68.908352 10.061555
-0.737229 18.804993 5.968645 -2.021327 -0.282063 2.783373 0.000000 0.000000 0.000000 -14.644957 -4.570378 -7.211900 1.736805 8.294875 23.613282 1.410853 3.445067 -23.909452 8.557175 -16.513976 -54.545522 0.000000 0.000000 0.000000 0.000000 0.000000 0.000000 0.000000 0.000000 0.000000 0.000000 0.000000 0.000000 0.000000 0.000000 0.000000 5.281007 0.292028 14.070825 4.200662 1.666818 -1.018736 1.175290 0.661846 -9.016509 1.543644 -4.581633 0.422540 -9.540147 -6.414809 -2.952307 -3.244354 -3.112885 -1.413874 0.000000 0.000000 0.000000 7.137774 17.807725 -58.439670 128.319149 -53.651276 92.477763 14.392298 -4.295304 34.716181 0.000000 0.000000 0.000000 -7.125000 0.000000 0.000000 -10.071105 -5.109814 -11.094488 0.000000 0.000000 0.000000 -35.003562 -53.895927 28.033581 -150.490768 -40.468929 -108.910248 -43.040648 26.171148 31.008869 0.000000 0.000000 0.000000 7.125000 0.000000 0.000000 -17.541570 68.665977 10.076185
